<?xml version="1.0" encoding="UTF-8" standalone="no"?>
<svg
   width="914"
   height="283"
   viewBox="0 0 914 283"
   fill="none"
   version="1.1"
   id="svg11"
   sodipodi:docname="aligned.svg"
   inkscape:version="1.3.2 (091e20e, 2023-11-25, custom)"
   xmlns:inkscape="http://www.inkscape.org/namespaces/inkscape"
   xmlns:sodipodi="http://sodipodi.sourceforge.net/DTD/sodipodi-0.dtd"
   xmlns="http://www.w3.org/2000/svg"
   xmlns:svg="http://www.w3.org/2000/svg">
  <defs
     id="defs11" />
  <sodipodi:namedview
     id="namedview11"
     pagecolor="#ffffff"
     bordercolor="#000000"
     borderopacity="0.25"
     inkscape:showpageshadow="2"
     inkscape:pageopacity="0.0"
     inkscape:pagecheckerboard="0"
     inkscape:deskcolor="#d1d1d1"
     inkscape:zoom="0.76411765"
     inkscape:cx="318.66821"
     inkscape:cy="189.10701"
     inkscape:window-width="1350"
     inkscape:window-height="1041"
     inkscape:window-x="104"
     inkscape:window-y="0"
     inkscape:window-maximized="0"
     inkscape:current-layer="svg11" />
  <rect
     x="-110.08881"
     y="-250.54539"
     width="58.531799"
     height="27.3148"
     transform="scale(-1)"
     fill="#ffffff"
     id="rect1" />
  <rect
     x="-110.08881"
     y="-59.3148"
     width="58.531799"
     height="27.3148"
     transform="scale(-1)"
     fill="#ffffff"
     id="rect2" />
  <rect
     x="-90.555603"
     y="-203.7054"
     width="19.510599"
     height="124.868"
     transform="scale(-1)"
     fill="#ffffff"
     id="rect3" />
  <rect
     x="-129.59851"
     y="-223.22841"
     width="19.510599"
     height="163.88901"
     transform="scale(-1)"
     fill="#ffffff"
     id="rect4" />
  <rect
     x="-51.510597"
     y="-223.22841"
     width="19.510599"
     height="163.88901"
     transform="scale(-1)"
     fill="#ffffff"
     id="rect5" />
  <path
     d="m 777.4769,78.967202 h 39.969 c 9.298,0 17.858,1.6621 25.682,4.9865 7.824,3.2057 14.57,7.5987 20.24,13.1789 5.669,5.580198 10.035,12.169698 13.096,19.768298 3.175,7.5986 4.762,15.7315 4.762,24.3985 0,8.667 -1.587,16.8 -4.762,24.399 -3.061,7.598 -7.427,14.188 -13.096,19.768 -5.67,5.58 -12.416,10.033 -20.24,13.357 -7.824,3.206 -16.384,4.809 -25.682,4.809 h -39.969 z m 39.969,105.074198 c 6.576,0 12.529,-1.068 17.858,-3.205 5.33,-2.137 9.865,-5.046 13.607,-8.727 3.855,-3.799 6.803,-8.311 8.844,-13.535 2.041,-5.224 3.062,-10.982 3.062,-17.275 0,-6.174 -1.021,-11.8727 -3.062,-17.0967 -2.041,-5.3428 -4.989,-9.8545 -8.844,-13.5351 -3.742,-3.7993 -8.277,-6.7675 -13.607,-8.9046 -5.329,-2.137098 -11.282,-3.205698 -17.858,-3.205698 h -20.41 V 184.0414 Z"
     fill="#ffffff"
     id="path5" />
  <path
     d="m 680.1649,78.971102 h 85.891 v 19.5901 h -66.332 V 130.6179 h 53.576 v 19.5905 h -53.576 v 33.837 h 66.332 v 19.59 h -85.891 z"
     fill="#ffffff"
     id="path6" />
  <path
     d="m 569.2489,78.971102 h 28.064 l 51.874,98.841298 h 1.701 l -1.701,-15.138 V 78.971102 h 19.56 V 203.6354 h -28.064 l -51.875,-98.8409 h -1.7 l 1.7,15.1378 v 83.7031 h -19.559 z"
     fill="#ffffff"
     id="path7" />
  <path
     d="m 492.5849,205.6904 c -8.921,0 -17.278,-1.566 -25.071,-4.699 -7.679,-3.248 -14.399,-7.714 -20.158,-13.399 -5.647,-5.8 -10.108,-12.587 -13.383,-20.359 -3.275,-7.889 -4.912,-16.531 -4.912,-25.928 0,-9.3969 1.637,-17.9815 4.912,-25.7541 3.275,-7.8886 7.736,-14.6752 13.383,-20.359598 5.759,-5.8005 12.479,-10.2668 20.158,-13.399 7.793,-3.2483 16.15,-4.8724 25.071,-4.8724 6.099,0 11.632,0.638 16.602,1.9141 4.969,1.2761 9.429,2.9583 13.382,5.0464 3.953,2.0882 7.397,4.4664 10.333,7.1346 3.05,2.6682 5.647,5.3944 7.793,8.1786 5.082,6.496498 8.809,13.863098 11.18,22.099698 h -19.481 c -2.032,-4.6403 -4.856,-8.8167 -8.47,-12.5289 -3.049,-3.1323 -7.114,-6.0325 -12.196,-8.7007 -5.082,-2.668198 -11.463,-4.002298 -19.143,-4.002298 -6.324,0 -12.14,1.102 -17.448,3.3062 -5.308,2.204198 -9.881,5.278398 -13.721,9.222698 -3.84,3.9443 -6.833,8.7007 -8.978,14.2691 -2.033,5.5685 -3.05,11.7166 -3.05,18.4456 0,6.728 1.017,12.877 3.05,18.445 2.145,5.569 5.138,10.325 8.978,14.269 3.84,3.945 8.413,7.019 13.721,9.223 5.308,2.204 11.124,3.306 17.448,3.306 4.066,0 7.793,-0.406 11.181,-1.218 3.388,-0.812 6.38,-1.914 8.978,-3.306 2.71,-1.392 5.082,-2.958 7.115,-4.698 2.033,-1.856 3.839,-3.713 5.421,-5.569 3.613,-4.292 6.267,-9.222 7.961,-14.791 h -21.175 v -19.141 h 45.765 v 19.141 h -5.109 c -2.597,9.049 -6.493,17.169 -11.688,24.362 -2.259,3.016 -4.913,6.032 -7.962,9.049 -2.936,2.9 -6.437,5.51 -10.503,7.83 -3.953,2.204 -8.413,4.003 -13.382,5.395 -4.97,1.392 -10.503,2.088 -16.602,2.088 z"
     fill="#ffffff"
     id="path8" />
  <path
     d="m 397.5579,78.967202 h 19.559 V 203.6324 h -19.559 z"
     fill="#ffffff"
     id="path9" />
  <path
     d="m 306.1999,78.967202 h 19.56 V 184.0414 h 60.379 v 19.591 h -79.939 z"
     fill="#ffffff"
     id="path10" />
  <path
     d="m 214.8409,78.967202 h 48.474 l 31.465,124.665198 h -20.41 l -8.164,-32.057 h -54.766 l -7.654,32.057 h -19.559 z m 46.603,73.018198 -13.437,-53.428098 h -18.709 l -12.756,53.428098 z"
     fill="#ffffff"
     id="path11" />
</svg>
