<?xml version="1.0" encoding="UTF-8" standalone="no"?>
<svg
   version="1.1"
   width="230"
   height="132"
   id="svg2"
   sodipodi:docname="irys.svg"
   inkscape:version="1.3.2 (091e20e, 2023-11-25, custom)"
   xmlns:inkscape="http://www.inkscape.org/namespaces/inkscape"
   xmlns:sodipodi="http://sodipodi.sourceforge.net/DTD/sodipodi-0.dtd"
   xmlns="http://www.w3.org/2000/svg"
   xmlns:svg="http://www.w3.org/2000/svg">
  <defs
     id="defs2" />
  <sodipodi:namedview
     id="namedview2"
     pagecolor="#ffffff"
     bordercolor="#000000"
     borderopacity="0.25"
     inkscape:showpageshadow="2"
     inkscape:pageopacity="0.0"
     inkscape:pagecheckerboard="0"
     inkscape:deskcolor="#d1d1d1"
     inkscape:zoom="3.280303"
     inkscape:cx="80.632795"
     inkscape:cy="80.023095"
     inkscape:window-width="1920"
     inkscape:window-height="1057"
     inkscape:window-x="-8"
     inkscape:window-y="-8"
     inkscape:window-maximized="1"
     inkscape:current-layer="svg2" />
  <path
     d="m 62.563232,16.312566 c 0.920728,7.6e-5 1.841456,1.51e-4 2.790085,2.29e-4 1.486065,0.0077 1.486065,0.0077 3.002151,0.01564 1.016773,0.0014 2.033547,0.0028 3.081131,0.0043 3.25033,0.0056 6.500591,0.01815 9.750901,0.03087 2.202473,0.005 4.404947,0.0096 6.607421,0.01367 5.401717,0.01103 10.803393,0.02777 16.205079,0.04883 3.9656,8.426488 7.44306,17.008378 10.8125,25.6875 0.50688,1.298937 1.01404,2.597766 1.52148,3.896485 1.22473,3.137624 2.44667,6.276299 3.66602,9.416015 2.90367,-2.903668 3.98247,-6.532461 5.47656,-10.289062 0.33011,-0.818424 0.66022,-1.636848 1.00034,-2.480072 1.05417,-2.61672 2.1012,-5.236228 3.1481,-7.855866 0.71307,-1.773625 1.42661,-3.547065 2.14063,-5.320312 1.75104,-4.349101 3.49241,-8.701899 5.23437,-13.054688 7.59,0 15.18,0 23,0 -0.33,1.32 -0.66,2.64 -1,4 1.11439,-0.651944 2.22879,-1.303887 3.37695,-1.975586 4.92108,-2.449198 9.17573,-2.542478 14.5918,-2.415039 1.38137,0.0085 1.38137,0.0085 2.79065,0.01715 2.91408,0.02222 5.82689,0.07239 8.7406,0.123474 1.98696,0.02008 3.97394,0.03833 5.96094,0.05469 4.84722,0.04046 9.69173,0.118776 14.53906,0.195313 0,6.6 0,13.2 0,20 -11.88,0.33 -23.76,0.66 -36,1 0,0.99 0,1.98 0,3 1.07314,0.01402 1.07314,0.01402 2.16797,0.02832 3.27801,0.05407 6.55465,0.137644 9.83203,0.221679 1.68802,0.02127 1.68802,0.02127 3.41015,0.04297 7.84681,0.229439 13.58882,1.254406 19.61329,6.453125 0.66902,0.837246 0.66902,0.837246 1.35156,1.691406 0.69222,0.833379 0.69222,0.833379 1.39844,1.683594 4.06319,6.224194 3.9159,12.671387 3.22656,19.878906 -1.67425,6.195733 -5.68894,10.532902 -11,14 -4.92355,2.658083 -9.89141,2.253905 -15.33203,2.195313 -1.48762,-0.0042 -1.48762,-0.0042 -3.0053,-0.0086 -3.15851,-0.01117 -6.31674,-0.03627 -9.47517,-0.06174 -2.14518,-0.01003 -4.29036,-0.01916 -6.43555,-0.02734 C 163.5011,86.50343 158.25087,86.46427 153,86.42608 c 0,-6.6 0,-13.2 0,-20 12.54,-0.33 25.08,-0.66 38,-1 0,-0.99 0,-1.98 0,-3 -1.012,0.0017 -1.012,0.0017 -2.04444,0.0034 -3.11115,-0.01224 -6.21994,-0.07007 -9.33056,-0.128418 -1.0609,0.0026 -2.1218,0.0052 -3.21485,0.0078 C 168.6337,62.118014 163.07037,60.410698 157,55.426034 c -3.56289,-4.342879 -5.25605,-8.688532 -7,-14 -1.50997,3.598672 -3.01963,7.197474 -4.52918,10.796326 -0.85233,2.031698 -1.70502,4.063246 -2.55773,6.094788 -3.17765,7.572816 -6.34838,15.148447 -9.50785,22.728866 -1.64374,3.943451 -3.28927,7.886156 -4.93484,11.828842 -0.81498,1.954079 -1.62906,3.908528 -2.44226,5.863343 -1.14779,2.758861 -2.29859,5.516441 -3.45002,8.273771 -0.34735,0.83713 -0.6947,1.67426 -1.05258,2.53676 -2.41173,5.7635 -2.41173,5.7635 -3.52554,6.87731 -1.70772,0.0871 -3.41899,0.107 -5.12891,0.0977 -1.55171,-0.005 -1.55171,-0.005 -3.13476,-0.01 -1.08862,-0.008 -2.17723,-0.0168 -3.29883,-0.0254 -1.63872,-0.007 -1.63872,-0.007 -3.31055,-0.0137 -2.70904,-0.0118 -5.417966,-0.0283 -8.12695,-0.0488 0.863116,-2.16825 1.727071,-4.33616 2.592041,-6.50367 0.732412,-1.83617 1.463361,-3.67292 2.192871,-5.51025 1.578418,-3.96166 3.157258,-7.915322 4.894778,-11.810304 0.45632,-1.027383 0.91265,-2.054766 1.38281,-3.113282 0.60521,-1.31291 0.60521,-1.31291 1.22266,-2.652343 1.68931,-5.695669 -1.84898,-11.384515 -4.10157,-16.542969 -0.77148,-1.792969 -1.54296,-3.585938 -2.31445,-5.378906 -1.218879,-2.816209 -2.439594,-5.631615 -3.660888,-8.446778 -1.179316,-2.722884 -2.352193,-5.448477 -3.524659,-8.174316 -0.553075,-1.265673 -0.553075,-1.265673 -1.117325,-2.556915 -0.337125,-0.784465 -0.67425,-1.56893 -1.021591,-2.377167 C 91.24569,42.670087 90.946703,41.981234 90.638656,41.271507 90,39.425834 90,39.425834 90,36.425834 c -8.58,0.33 -17.16,0.66 -26,1 0,16.17 0,32.34 0,49 -7.26,0 -14.52,0 -22,0 -0.124161,-7.364847 -0.214607,-14.729077 -0.274659,-22.094726 -0.02505,-2.502387 -0.0591,-5.004701 -0.102539,-7.506836 -0.06107,-3.609558 -0.08911,-7.218143 -0.111084,-10.828125 -0.02581,-1.107698 -0.05161,-2.215395 -0.0782,-3.356659 -0.0026,-7.378968 1.254011,-13.11121 5.566483,-19.213654 4.774336,-4.468051 8.896041,-7.131534 15.563231,-7.113268 z"
     fill="#ffffff"
     id="path1" />
  <path
     d="m 16,16.426092 c 7.26,0 14.52,0 22,0 0,23.1 0,46.2 0,70 -7.26,0 -14.52,0 -22,0 0,-23.1 0,-46.2 0,-70 z"
     fill="#ffffff"
     id="path2" />
</svg>
