<?xml version="1.0" encoding="UTF-8" standalone="no"?>
<svg
   width="137.27699"
   height="48"
   fill="none"
   viewBox="0 0 13.084213 48"
   class=" md:w-[92px] md:h-6 lg:w-[107px] lg:h-7 xl:w-[122px] xl:h-8 "
   version="1.1"
   id="svg2"
   sodipodi:docname="kwil.svg"
   inkscape:version="1.3.2 (091e20e, 2023-11-25, custom)"
   xmlns:inkscape="http://www.inkscape.org/namespaces/inkscape"
   xmlns:sodipodi="http://sodipodi.sourceforge.net/DTD/sodipodi-0.dtd"
   xmlns="http://www.w3.org/2000/svg"
   xmlns:svg="http://www.w3.org/2000/svg">
  <sodipodi:namedview
     id="namedview2"
     pagecolor="#ffffff"
     bordercolor="#000000"
     borderopacity="0.25"
     inkscape:showpageshadow="2"
     inkscape:pageopacity="0.0"
     inkscape:pagecheckerboard="0"
     inkscape:deskcolor="#d1d1d1"
     inkscape:zoom="1.0148438"
     inkscape:cx="-324.68052"
     inkscape:cy="205.45035"
     inkscape:window-width="1920"
     inkscape:window-height="1057"
     inkscape:window-x="-8"
     inkscape:window-y="-8"
     inkscape:window-maximized="1"
     inkscape:current-layer="svg2" />
  <g
     fill="#ffffff"
     clip-path="url(#logo_svg__a)"
     id="g1"
     transform="translate(-54.09639,8)">
    <path
       d="m 30.934,32 c -0.029,-0.031 -0.055,-0.082 -0.086,-0.086 -0.27,-0.041 -0.54,-0.058 -0.806,-0.11 a 5,5 0 0 1 -0.875,-0.231 9,9 0 0 1 -1.231,-0.584 6.7,6.7 0 0 1 -1.125,-0.816 c -0.449,-0.417 -0.887,-0.857 -1.247,-1.35 -0.306,-0.42 -0.496,-0.926 -0.726,-1.397 a 4,4 0 0 1 -0.25,-0.62 c -0.073,-0.236 -0.124,-0.478 -0.175,-0.72 -0.365,-1.691 -0.181,-3.406 -0.196,-5.11 -0.028,-3.194 -0.008,-6.39 -0.008,-9.586 v -0.337 h 7.652 v 0.378 c 0,4.206 -0.006,8.413 0.008,12.619 0,0.467 0.163,0.918 0.45,1.302 0.17,0.227 0.364,0.437 0.55,0.651 0.335,0.386 0.788,0.533 1.27,0.619 0.14,0.024 0.275,0.081 0.416,0.095 0.636,0.066 1.194,-0.173 1.745,-0.455 0.512,-0.26 0.802,-0.708 1.057,-1.192 0.245,-0.465 0.335,-0.957 0.333,-1.483 -0.009,-4.052 -0.005,-8.103 -0.005,-12.154 v -0.38 h 7.652 v 0.32 c 0,4.297 -0.004,8.593 0.006,12.887 0,0.45 0.19,0.85 0.478,1.198 0.106,0.129 0.188,0.282 0.306,0.4 0.4,0.398 0.875,0.663 1.437,0.76 0.275,0.046 0.563,0.126 0.828,0.09 0.564,-0.08 1.117,-0.205 1.576,-0.605 0.424,-0.37 0.763,-0.79 0.963,-1.31 0.084,-0.219 0.16,-0.46 0.16,-0.692 0.01,-4.23 0.006,-8.462 0.006,-12.69 v -0.368 h 7.635 v 20.56 c -0.876,-0.069 -1.713,-0.171 -2.531,-0.44 -0.822,-0.272 -1.523,-0.747 -2.229,-1.233 -0.71,-0.49 -1.17,-1.21 -1.755,-1.85 -0.484,0.776 -1.02,1.425 -1.655,1.979 -0.394,0.344 -0.863,0.6 -1.286,0.916 -0.492,0.37 -1.092,0.481 -1.643,0.708 -0.186,0.078 -0.4,0.094 -0.602,0.122 -0.282,0.043 -0.567,0.07 -0.849,0.11 -0.029,0.005 -0.049,0.056 -0.074,0.084 h -1.714 c -0.02,-0.028 -0.04,-0.085 -0.06,-0.083 -0.411,0.018 -0.801,-0.076 -1.187,-0.208 -0.392,-0.133 -0.806,-0.213 -1.175,-0.39 a 7.1,7.1 0 0 1 -2.15,-1.607 c -0.163,-0.177 -0.357,-0.328 -0.502,-0.518 -0.224,-0.298 -0.418,-0.618 -0.632,-0.939 -0.053,0.04 -0.098,0.06 -0.127,0.096 -0.261,0.333 -0.502,0.688 -0.786,1 -0.357,0.392 -0.718,0.798 -1.14,1.11 -0.6,0.445 -1.252,0.819 -1.974,1.066 -0.614,0.21 -1.227,0.392 -1.882,0.386 -0.061,0 -0.122,0.057 -0.186,0.087 h -1.665 z m 90.337,-18.291 c -0.39,0.396 -0.783,0.79 -1.169,1.19 -0.135,0.14 -0.237,0.314 -0.378,0.449 -0.473,0.453 -0.963,0.89 -1.437,1.345 -0.389,0.375 -0.763,0.765 -1.143,1.15 -0.534,0.542 -1.071,1.079 -1.6,1.623 -0.532,0.551 -1.053,1.115 -1.587,1.666 -0.145,0.147 -0.333,0.253 -0.48,0.398 -0.492,0.482 -0.974,0.973 -1.459,1.46 l -0.774,0.77 c -0.471,0.472 -0.935,0.954 -1.42,1.409 -0.102,0.096 -0.294,0.137 -0.445,0.137 -2.015,0.008 -4.031,0.006 -6.046,0.006 -1.804,0 -3.606,0.002 -5.41,-0.004 -0.219,0 -0.382,0.055 -0.537,0.218 -0.306,0.323 -0.635,0.625 -0.94,0.945 -0.895,0.867 -1.797,1.729 -2.683,2.602 -0.881,0.872 -1.749,1.757 -2.6,2.615 h -2.16 c 0.262,-0.245 0.499,-0.453 0.72,-0.678 0.56,-0.565 1.11,-1.14 1.67,-1.706 0.49,-0.492 0.99,-0.974 1.483,-1.463 1.132,-1.13 2.27,-2.254 3.39,-3.395 0.114,-0.116 0.175,-0.33 0.177,-0.5 q 0.014,-5.721 0.002,-11.443 a 0.77,0.77 0 0 1 0.245,-0.604 c 0.708,-0.692 1.406,-1.394 2.106,-2.092 1,-0.998 1.998,-2 3.005,-2.992 0.151,-0.15 0.343,-0.258 0.567,-0.425 v 11.883 c 0.129,-0.078 0.21,-0.109 0.267,-0.164 0.347,-0.339 0.698,-0.673 1.023,-1.03 0.086,-0.094 0.116,-0.266 0.118,-0.4 q 0.01,-5.685 0,-11.37 c 0,-0.346 0.076,-0.605 0.353,-0.825 0.241,-0.192 0.441,-0.433 0.66,-0.65 0.991,-0.989 1.979,-1.983 2.983,-2.96 0.194,-0.19 0.429,-0.325 0.752,-0.325 4.137,0.012 8.274,0.008 12.411,0.008 0.114,0 0.228,-0.006 0.342,-0.01 v 13.162 z m -2.239,0.071 q -0.023,-0.036 -0.047,-0.073 h -0.287 c -3.043,0 -6.086,0.004 -9.13,-0.006 a 0.74,0.74 0 0 0 -0.612,0.27 c -0.332,0.379 -0.667,0.76 -1.022,1.12 -0.219,0.22 -0.496,0.381 -0.713,0.604 -0.714,0.73 -1.408,1.482 -2.12,2.212 -0.239,0.245 -0.533,0.437 -0.772,0.682 -0.845,0.865 -1.675,1.745 -2.516,2.612 -0.143,0.147 -0.327,0.255 -0.476,0.398 q -0.663,0.642 -1.314,1.296 c -0.23,0.23 -0.451,0.468 -0.718,0.745 0.14,0.019 0.21,0.035 0.28,0.035 q 4.613,0 9.226,-0.002 c 0.09,0 0.204,-0.027 0.266,-0.086 0.857,-0.824 1.706,-1.653 2.555,-2.486 q 0.67,-0.655 1.331,-1.32 c 0.408,-0.41 0.812,-0.827 1.218,-1.241 1.602,-1.6 3.27,-3.137 4.853,-4.758 z m -9.296,-2.855 2.931,-2.943 c -0.004,-0.033 0.002,-0.127 -0.025,-0.208 a 2.1,2.1 0 0 1 0.012,-1.427 c 0.3,-0.85 1.203,-1.477 2.103,-1.498 0.391,-0.008 0.714,0.135 1.061,0.276 0.59,0.24 1.21,1.19 1.224,1.814 0.019,0.837 -0.306,1.515 -0.991,1.986 -0.594,0.41 -1.254,0.557 -1.968,0.316 a 0.4,0.4 0 0 0 -0.31,0.037 q -0.301,0.203 -0.559,0.457 -0.99,0.969 -1.962,1.955 c -0.069,0.07 -0.094,0.18 -0.163,0.319 h 8.778 V 2.237 h -10.129 v 8.69 z M 68.88,32 C 68.805,31.969 68.733,31.92 68.654,31.91 68.339,31.867 68.009,31.883 67.711,31.791 Q 66.944,31.557 66.217,31.22 a 7.5,7.5 0 0 1 -1.54,-0.962 C 64.207,29.885 63.863,29.42 63.51,28.956 63.264,28.632 63.013,28.301 62.835,27.938 a 7.7,7.7 0 0 1 -0.498,-1.35 c -0.112,-0.418 -0.163,-0.854 -0.212,-1.287 -0.053,-0.478 -0.098,-0.96 -0.1,-1.439 -0.008,-4.155 -0.004,-8.313 -0.004,-12.468 v -0.35 h 7.649 v 0.332 c 0,4.228 -0.004,8.46 0.006,12.688 0,0.45 0.15,0.878 0.433,1.245 0.106,0.139 0.2,0.288 0.31,0.425 0.292,0.365 0.696,0.58 1.114,0.747 0.237,0.095 0.51,0.108 0.772,0.13 0.261,0.023 0.377,0.11 0.38,0.37 0.004,1.345 0,2.69 0.001,4.032 0,0.184 -0.081,0.298 -0.244,0.384 -0.427,0.219 -0.882,0.341 -1.353,0.41 -0.22,0.033 -0.441,0.064 -0.66,0.105 -0.047,0.008 -0.088,0.057 -0.13,0.087 h -1.42 z M 23.587,31.592 h -8.89 c -2.296,-3.547 -4.602,-7.113 -6.943,-10.727 -0.01,0.16 -0.023,0.275 -0.023,0.39 0,2.747 0.008,5.494 -0.008,8.239 -0.004,0.681 -0.094,1.361 -0.145,2.078 H 0 V 4.174 H 7.731 V 4.545 Q 7.733,9.887 7.729,15.23 c 0,0.418 0.165,0.777 0.37,1.114 0.157,0.26 0.375,0.482 0.58,0.71 0.346,0.388 0.824,0.613 1.297,0.682 0.714,0.104 1.447,0.08 2.106,-0.345 0.625,-0.402 1.064,-0.935 1.264,-1.647 0.073,-0.265 0.102,-0.551 0.104,-0.829 0.01,-1.165 0.004,-2.33 0.004,-3.496 v -0.3 c 0.198,-0.122 7.32,-0.157 7.654,-0.04 v 0.273 c 0,1.753 0.008,3.504 -0.009,5.257 -0.002,0.29 -0.073,0.586 -0.16,0.866 -0.172,0.545 -0.38,1.077 -0.57,1.616 -0.017,0.045 -0.01,0.096 -0.027,0.133 -0.628,1.21 -1.6,2.09 -2.753,2.835 0.29,0.45 0.561,0.871 0.829,1.294 0.214,0.336 0.422,0.677 0.636,1.012 0.235,0.365 0.482,0.724 0.715,1.092 0.204,0.322 0.392,0.657 0.598,0.98 0.236,0.369 0.49,0.73 0.732,1.098 q 0.445,0.669 0.882,1.345 c 0.229,0.353 0.447,0.714 0.671,1.069 0.286,0.449 0.576,0.896 0.856,1.347 0.044,0.071 0.044,0.171 0.075,0.296 z M 74.575,4.172 h 7.71 V 31.58 h -7.71 z M 61.008,4.79 65.847,0 70.704,4.823 69.488,6.033 C 68.365,7.153 67.245,8.274 66.118,9.39 66.031,9.478 65.902,9.525 65.794,9.588 64.171,7.962 62.588,6.376 61.008,4.79"
       id="path1" />
  </g>
  <defs
     id="defs2">
    <clipPath
       id="logo_svg__a">
      <path
         fill="#ffffff"
         d="M 0,0 H 121.277 V 32 H 0 Z"
         id="path2" />
    </clipPath>
  </defs>
</svg>
