<?xml version="1.0" encoding="UTF-8" standalone="no"?>
<svg
   version="1.1"
   width="1819"
   height="528"
   style="clip-rule:evenodd;fill-rule:evenodd;image-rendering:optimizeQuality;shape-rendering:geometricPrecision;text-rendering:geometricPrecision"
   id="svg11"
   sodipodi:docname="sindri.svg"
   inkscape:version="1.3.2 (091e20e, 2023-11-25, custom)"
   xmlns:inkscape="http://www.inkscape.org/namespaces/inkscape"
   xmlns:sodipodi="http://sodipodi.sourceforge.net/DTD/sodipodi-0.dtd"
   xmlns="http://www.w3.org/2000/svg"
   xmlns:svg="http://www.w3.org/2000/svg">
  <defs
     id="defs11" />
  <sodipodi:namedview
     id="namedview11"
     pagecolor="#ffffff"
     bordercolor="#000000"
     borderopacity="0.25"
     inkscape:showpageshadow="2"
     inkscape:pageopacity="0.0"
     inkscape:pagecheckerboard="0"
     inkscape:deskcolor="#d1d1d1"
     inkscape:zoom="0.54318847"
     inkscape:cx="1042.9161"
     inkscape:cy="310.2054"
     inkscape:window-width="1920"
     inkscape:window-height="1057"
     inkscape:window-x="-8"
     inkscape:window-y="-8"
     inkscape:window-maximized="1"
     inkscape:current-layer="svg11" />
  <g
     id="g1"
     transform="translate(64.5,64.5)">
    <path
       style="opacity:0.995"
       fill="#fefefe"
       d="m 107.5,-0.5 c 88,0 176,0 264,0 14.317,4.15168 23.484,13.485 27.5,28 4.974,20.7179 -1.193,36.8845 -18.5,48.5 -2.905,1.2862 -5.905,2.2862 -9,3 -88,0.6667 -176,0.6667 -264,0 C 94.5771,75.7419 85.7437,67.9086 81,55.5 79.4471,46.2284 79.1138,36.895 80,27.5 84.0159,12.985 93.1825,3.65168 107.5,-0.5 Z"
       id="path1" />
  </g>
  <g
     id="g2"
     transform="translate(64.5,64.5)">
    <path
       style="opacity:0.971"
       fill="#fefefe"
       d="m 1339.5,36.5 c 14.08,-0.6384 27.91,0.0283 41.5,2 0.67,97.333 0.67,194.667 0,292 -0.37,0.916 -0.87,1.75 -1.5,2.5 -13,0.667 -26,0.667 -39,0 -0.5,-0.5 -1,-1 -1.5,-1.5 -0.33,-7 -0.67,-14 -1,-21 -9.92,6.71 -19.75,13.543 -29.5,20.5 -1.89,0.973 -3.89,1.64 -6,2 -16.42,1.09 -32.75,0.424 -49,-2 -25.11,-7.464 -42.61,-23.297 -52.5,-47.5 -2.13,-6.168 -3.46,-12.501 -4,-19 -0.67,-25.333 -0.67,-50.667 0,-76 4.25,-33.58 22.41,-55.746 54.5,-66.5 3.33,-0.667 6.67,-1.333 10,-2 14.33,-0.667 28.67,-0.667 43,0 11.31,6.657 22.31,13.823 33,21.5 0.67,-35.067 1.34,-70.0666 2,-105 z m -74,126 c 8.67,-0.166 17.34,0 26,0.5 15.47,9.97 30.8,20.137 46,30.5 1.17,21.659 1.33,43.326 0.5,65 -15.31,11.315 -31.14,21.815 -47.5,31.5 -8,0.667 -16,0.667 -24,0 -14.17,-3.5 -23,-12.333 -26.5,-26.5 -0.96,-26.049 -0.63,-52.049 1,-78 4.52,-11.687 12.68,-19.354 24.5,-23 z"
       id="path2" />
  </g>
  <g
     id="g3"
     transform="translate(64.5,64.5)">
    <path
       style="opacity:0.955"
       fill="#fefffe"
       d="m 893.5,46.5 c 25.856,-0.2935 35.356,12.0398 28.5,37 -9.737,13.0154 -21.903,15.8488 -36.5,8.5 -14.148,-13.3773 -14.481,-27.044 -1,-41 2.937,-1.8009 5.937,-3.3009 9,-4.5 z"
       id="path3" />
  </g>
  <g
     id="g4"
     transform="translate(64.5,64.5)">
    <path
       style="opacity:0.955"
       fill="#fdfdfd"
       d="m 1690.5,65.5 c 0,4 0,8 0,12 -5.85,15.2631 -16.85,21.0965 -33,17.5 -14.34,-6.3368 -19.51,-17.1702 -15.5,-32.5 8.39,-16.1313 20.89,-20.2979 37.5,-12.5 5.48,3.9622 9.14,9.1289 11,15.5 z"
       id="path4" />
  </g>
  <g
     id="g5"
     transform="translate(64.5,64.5)">
    <path
       style="opacity:0.992"
       fill="#fefefe"
       d="m -0.5,128.5 c 0,-6 0,-12 0,-18 9.62561,-26.6482 28.2923,-36.1482 56,-28.5 19.0783,9.9849 27.2449,25.818 24.5,47.5 1.8333,17.833 11.6667,27.667 29.5,29.5 87.333,0.333 174.667,0.667 262,1 12.898,3.23 21.731,11.064 26.5,23.5 2,10.667 2,21.333 0,32 -4.769,12.436 -13.602,20.27 -26.5,23.5 -88,0.667 -176,0.667 -264,0 C 92.9735,235.14 83.8068,225.973 80,211.5 84.9846,173.489 68.4846,155.989 30.5,159 14.3186,154.651 3.98523,144.484 -0.5,128.5 Z"
       id="path5" />
  </g>
  <g
     id="g6"
     transform="translate(64.5,64.5)">
    <path
       style="opacity:0.97"
       fill="#fefefe"
       d="m 706.5,119.5 c 19.336,-0.167 38.67,0 58,0.5 33.959,6.124 52.959,26.291 57,60.5 0.174,2.193 -0.493,4.027 -2,5.5 -13,0.667 -26,0.667 -39,0 -1.356,-6.06 -3.522,-11.893 -6.5,-17.5 -3.639,-4.234 -8.139,-7.068 -13.5,-8.5 -17.333,-0.667 -34.667,-0.667 -52,0 -13.05,3.271 -17.217,11.104 -12.5,23.5 2.234,2.2 4.734,4.033 7.5,5.5 24.943,7.486 49.943,14.82 75,22 17.548,6.015 31.715,16.515 42.5,31.5 11.041,22.823 9.708,44.823 -4,66 -15.143,16.484 -33.976,24.651 -56.5,24.5 -18.693,0.854 -37.36,0.521 -56,-1 -38.494,-7.317 -57.161,-30.483 -56,-69.5 13.671,-0.167 27.337,0 41,0.5 -0.768,17.174 7.232,27.174 24,30 16.667,0.667 33.333,0.667 50,0 16.791,-1.431 23.624,-10.264 20.5,-26.5 -5.339,-9.095 -13.172,-14.929 -23.5,-17.5 -24.177,-6.044 -48.177,-12.711 -72,-20 -31.313,-13.125 -43.147,-36.292 -35.5,-69.5 6.625,-18.588 19.458,-30.754 38.5,-36.5 5.096,-1.36 10.096,-2.526 15,-3.5 z"
       id="path6" />
  </g>
  <g
     id="g7"
     transform="translate(64.5,64.5)">
    <path
       style="opacity:0.966"
       fill="#fefefe"
       d="m 854.5,119.5 c 23.397,-0.65 46.563,0.016 69.5,2 0.168,70.237 0.668,140.404 1.5,210.5 -14.51,1.482 -29.176,1.982 -44,1.5 0.167,-56.668 0,-113.334 -0.5,-170 -8.422,-0.818 -16.922,-1.318 -25.5,-1.5 -0.5,-0.5 -1,-1 -1.5,-1.5 -0.814,-13.742 -0.647,-27.408 0.5,-41 z"
       id="path7" />
  </g>
  <g
     id="g8"
     transform="translate(64.5,64.5)">
    <path
       style="opacity:0.975"
       fill="#fefefe"
       d="m 980.5,119.5 c 13.337,-0.167 26.67,0 40,0.5 0.82,7.754 1.32,15.588 1.5,23.5 11.25,-8.254 22.75,-16.088 34.5,-23.5 15.71,-0.901 31.37,-0.568 47,1 27.63,6.96 46.46,23.793 56.5,50.5 1.48,4.906 2.48,9.906 3,15 0.83,48.67 0.67,97.337 -0.5,146 -13.29,1.148 -26.62,1.315 -40,0.5 -0.5,-0.5 -1,-1 -1.5,-1.5 -0.33,-48 -0.67,-96 -1,-144 -6.14,-18.081 -18.81,-26.414 -38,-25 -4.5,0.167 -9,0.333 -13.5,0.5 -15.5,9.584 -30.84,19.417 -46,29.5 -0.67,46.667 -1.33,93.333 -2,140 -13.33,1.333 -26.667,1.333 -40,0 -1.33,-71.068 -1.33,-142.068 0,-213 z"
       id="path8" />
  </g>
  <g
     id="g9"
     transform="translate(64.5,64.5)">
    <path
       style="opacity:0.977"
       fill="#fefefe"
       d="m 1423.5,119.5 c 13.34,-0.167 26.67,0 40,0.5 0.66,10.106 1.32,20.273 2,30.5 15.2,-10.427 30.53,-20.594 46,-30.5 35.74,-3.219 61.24,11.281 76.5,43.5 5.41,15.878 7.58,32.212 6.5,49 -14.33,0 -28.67,0 -43,0 0.17,-7.674 0,-15.341 -0.5,-23 -2.98,-17.996 -13.48,-26.829 -31.5,-26.5 -18.25,12.043 -36.42,24.209 -54.5,36.5 -0.33,44.333 -0.67,88.667 -1,133 -13.42,1.156 -26.92,1.322 -40.5,0.5 -1.33,-71.167 -1.33,-142.333 0,-213.5 z"
       id="path9" />
  </g>
  <g
     id="g10"
     transform="translate(64.5,64.5)">
    <path
       style="opacity:0.979"
       fill="#f9f9f9"
       d="m 1690.5,121.5 c 0,70.667 0,141.333 0,212 -14.82,0.482 -29.49,-0.018 -44,-1.5 0.95,-55.955 1.11,-112.121 0.5,-168.5 -8.42,-0.818 -16.92,-1.318 -25.5,-1.5 -0.5,-0.5 -1,-1 -1.5,-1.5 -0.82,-13.575 -0.66,-27.075 0.5,-40.5 22.67,-0.667 45.33,-0.667 68,0 0.54,0.717 1.21,1.217 2,1.5 z"
       id="path10" />
  </g>
  <g
     id="g11"
     transform="translate(64.5,64.5)">
    <path
       style="opacity:0.992"
       fill="#fefefe"
       d="m 371.5,399.5 c -101.333,0 -202.667,0 -304,0 -14.344,-4.178 -23.5107,-13.511 -27.5,-28 -4.9739,-20.718 1.1927,-36.885 18.5,-48.5 2.9055,-1.286 5.9055,-2.286 9,-3 103.026,-0.015 206.026,-0.682 309,-2 13.82,-4.458 21.32,-13.958 22.5,-28.5 -2.745,-21.682 5.422,-37.515 24.5,-47.5 23.907,-7.484 41.741,-0.317 53.5,21.5 7.484,23.907 0.317,41.741 -21.5,53.5 -2.288,0.822 -4.622,1.489 -7,2 -37.985,-3.011 -54.485,14.489 -49.5,52.5 -4.016,14.515 -13.183,23.848 -27.5,28 z"
       id="path11" />
  </g>
</svg>
